<svg width="24" height="24" viewBox="0 0 24 24" fill="none" xmlns="http://www.w3.org/2000/svg">
<path d="M19.5525 2.99691C19.3118 3.01443 19.0754 3.07091 18.8528 3.16416H18.8498C18.636 3.24891 17.6198 3.67641 16.0748 4.32441L10.5383 6.65616C6.56553 8.32866 2.66028 9.97566 2.66028 9.97566L2.70678 9.95766C2.70678 9.95766 2.43753 10.0462 2.15628 10.2389C1.98252 10.3495 1.83301 10.4941 1.71678 10.6642C1.57878 10.8667 1.46778 11.1764 1.50903 11.4967C1.57653 12.0382 1.92753 12.3629 2.17953 12.5422C2.43453 12.7237 2.67753 12.8084 2.67753 12.8084H2.68353L6.34578 14.0422C6.51003 14.5694 7.46178 17.6984 7.69053 18.4192C7.82553 18.8497 7.95678 19.1189 8.12103 19.3244C8.20053 19.4294 8.29353 19.5172 8.40528 19.5877C8.46337 19.6215 8.52532 19.6481 8.58978 19.6672L8.55228 19.6582C8.56353 19.6612 8.57253 19.6702 8.58078 19.6732C8.61078 19.6814 8.63103 19.6844 8.66928 19.6904C9.24903 19.8659 9.71478 19.5059 9.71478 19.5059L9.74103 19.4849L11.9033 17.5162L15.5273 20.2964L15.6098 20.3317C16.365 20.6632 17.13 20.4787 17.5343 20.1532C17.9415 19.8254 18.0998 19.4062 18.0998 19.4062L18.126 19.3387L20.9265 4.99191C21.006 4.63791 21.0263 4.30641 20.9385 3.98466C20.848 3.65903 20.6391 3.37897 20.3528 3.19941C20.1123 3.05325 19.8335 2.9827 19.5525 2.99691ZM19.4768 4.53441C19.4738 4.58166 19.4828 4.57641 19.4618 4.66716V4.67541L16.6875 18.8729C16.6755 18.8932 16.6553 18.9374 16.5998 18.9817C16.5413 19.0282 16.4948 19.0574 16.251 18.9607L11.8185 15.5624L9.14103 18.0029L9.70353 14.4104L16.9455 7.66041C17.244 7.38291 17.1443 7.32441 17.1443 7.32441C17.1653 6.98391 16.6935 7.22466 16.6935 7.22466L7.56153 12.8819L7.55853 12.8669L3.18153 11.3932V11.3902L3.17028 11.3879C3.17795 11.3854 3.18546 11.3824 3.19278 11.3789L3.21678 11.3669L3.24003 11.3587C3.24003 11.3587 7.14828 9.71166 11.121 8.03916C13.11 7.20141 15.114 6.35766 16.6553 5.70666C17.5693 5.32191 18.4843 4.93941 19.4003 4.55916C19.4618 4.53516 19.4325 4.53516 19.4768 4.53516V4.53441Z" fill="#F3C653" fill-opacity="0.7"/>
</svg>
